<?xml version="1.0" encoding="UTF-8"?>
<svg version="1.1" xmlns="http://www.w3.org/2000/svg" width="181" height="183">
<path d="M0 0 C59.73 0 119.46 0 181 0 C181 60.39 181 120.78 181 183 C121.27 183 61.54 183 0 183 C0 122.61 0 62.22 0 0 Z " fill="#2B7FFF" transform="translate(0,0)"/>
<path d="M0 0 C1.02287109 0.57427734 1.02287109 0.57427734 2.06640625 1.16015625 C5.16607555 2.93028315 5.16607555 2.93028315 8.69140625 2.41015625 C10.04815437 1.5810324 11.40294851 0.74868174 12.75390625 -0.08984375 C17.65727223 -2.05119014 22.38760889 -1.49042636 27.12890625 0.53515625 C31.49941765 2.94023057 34.00003241 6.48972808 35.94140625 11.03515625 C35.94140625 12.02515625 35.94140625 13.01515625 35.94140625 14.03515625 C36.64265625 14.22078125 37.34390625 14.40640625 38.06640625 14.59765625 C42.73982708 16.93436667 45.77823262 20.73951985 48.125 25.37109375 C49.09565648 28.53849911 48.99826524 31.04652017 48.81640625 34.34765625 C48.70886357 39.65906955 49.38496395 42.63920433 52.03515625 47.14453125 C54.06890806 51.38735831 53.68836308 55.88193886 52.17578125 60.2421875 C50.71494863 63.36674615 49.37917968 65.63600989 46.81640625 67.97265625 C44.70713995 70.29284918 44.5470344 71.33253361 44.00390625 74.34765625 C42.84751793 80.26564352 40.7261506 84.11212475 35.70703125 87.578125 C30.19879982 90.63160112 25.21777085 92.27688306 18.94140625 91.03515625 C14.5323986 89.44729685 11.14650501 87.46638161 7.94140625 84.03515625 C5.39969421 85.20825411 3.21256881 86.52600595 0.87890625 88.09765625 C-4.01619708 91.32634142 -8.34176926 91.79915584 -14.05859375 91.03515625 C-19.98650877 89.07674877 -24.82329847 86.34306569 -28.1875 80.98828125 C-29.45064382 78.15612023 -29.8659062 75.27836286 -30.3984375 72.23828125 C-31.37735794 68.97135149 -33.36582379 67.02523733 -35.66015625 64.57421875 C-39.2249575 60.65094587 -39.42612817 56.40270463 -39.32421875 51.32421875 C-38.90020578 47.67022467 -37.72325218 43.69981468 -35.05859375 41.03515625 C-35.09124705 39.01362036 -35.16028528 36.9926341 -35.24609375 34.97265625 C-35.27707583 27.89325181 -34.260077 23.35072354 -29.3046875 18.21875 C-24.65517148 14.03515625 -24.65517148 14.03515625 -22.05859375 14.03515625 C-21.92324219 13.44347656 -21.78789063 12.85179687 -21.6484375 12.2421875 C-20.15978316 6.77784553 -18.59327122 3.95179465 -13.77734375 0.91015625 C-9.35520792 -1.3411129 -4.62174687 -2.16616979 0 0 Z " fill="#E9F2FF" transform="translate(83.05859375,46.96484375)"/>
<path d="M0 0 C59.73 0 119.46 0 181 0 C181 60.39 181 120.78 181 183 C121.27 183 61.54 183 0 183 C0 170.79 0 158.58 0 146 C0.33 146 0.66 146 1 146 C1.14695313 146.75023437 1.29390625 147.50046875 1.4453125 148.2734375 C3.9268997 159.59746185 8.38717425 168.224042 18 175 C20.59287718 176.55475154 23.19475846 177.87470349 26 179 C26.80328735 179.34035278 27.60657471 179.68070557 28.4342041 180.03137207 C33.35409961 181.36783336 38.0302339 181.31136278 43.10742188 181.32226562 C44.21722412 181.33219543 45.32702637 181.34212524 46.47045898 181.35235596 C50.13658144 181.38152649 53.80253061 181.39519348 57.46875 181.40625 C60.02738445 181.41776213 62.58601889 181.42927748 65.14465332 181.4407959 C69.82600322 181.45911613 74.50730159 181.47172283 79.18867826 181.4777894 C86.04404821 181.48672555 92.89861557 181.52171228 99.75374174 181.57979059 C105.71990292 181.62855327 111.6858685 181.64369362 117.65223694 181.6471405 C120.17501687 181.65316204 122.69779473 181.66911175 125.22044373 181.69551086 C142.01097762 181.85862631 156.32371778 181.69341802 169.09765625 169.34765625 C172.60966693 165.01353219 174.84806142 160.11526385 177 155 C177.52358565 153.82743873 177.52358565 153.82743873 178.05774879 152.63118935 C179.02963131 149.91725606 179.25593357 147.93715099 179.26742554 145.06893921 C179.27595551 144.10192078 179.28448547 143.13490234 179.29327393 142.13858032 C179.29236755 141.08915253 179.29146118 140.03972473 179.29052734 138.95849609 C179.29724457 137.844021 179.30396179 136.7295459 179.31088257 135.58129883 C179.32988567 131.89529971 179.33378842 128.20948257 179.3359375 124.5234375 C179.3423654 121.95618617 179.34909375 119.38893558 179.35610962 116.82168579 C179.36808932 111.43660474 179.37187561 106.05159564 179.37060547 100.66650391 C179.36940674 94.46521003 179.39045721 88.26426571 179.4220928 82.06306016 C179.45153479 76.07602816 179.45857772 70.08918382 179.45738602 64.10206985 C179.4597388 61.56567588 179.46854403 59.02927903 179.48405075 56.49293137 C179.50376458 52.93428818 179.49784986 49.37653019 179.48583984 45.81787109 C179.49707886 44.78058868 179.50831787 43.74330627 179.51989746 42.67459106 C179.42356361 31.37566016 175.8142069 22.19930129 168 14 C159.10880807 5.56969059 148.19785457 2.23152488 136.16381836 2.36889648 C135.04832108 2.36174118 133.93282379 2.35458588 132.78352356 2.34721375 C129.13520006 2.33045168 125.48812706 2.34965631 121.83984375 2.37109375 C119.28259683 2.37026397 116.72534998 2.36780048 114.16810608 2.36378479 C108.82470109 2.36093537 103.48172938 2.37500719 98.13842773 2.40307617 C91.98862871 2.43513567 85.8394641 2.43509951 79.68961996 2.4178614 C73.73618421 2.40191868 67.78294054 2.40888009 61.8295002 2.42579842 C59.31266355 2.43095854 56.79580866 2.43052498 54.27897453 2.42425346 C50.75452034 2.41876628 47.2311209 2.43928963 43.70678711 2.46655273 C42.68050201 2.46002686 41.65421692 2.45350098 40.59683228 2.44677734 C28.09801559 2.61009341 18.73563738 7.18433524 10.02734375 15.99609375 C4.87570602 21.9571183 2.88169664 28.43815076 1 36 C0.67 36 0.34 36 0 36 C0 24.12 0 12.24 0 0 Z " fill="#FBFDFF" transform="translate(0,0)"/>
<path d="M0 0 C4.57238378 0.8164971 5.74922499 1.88450358 8.5 5.625 C9.18933583 9.28690845 9.10744836 12.84820561 9 16.5625 C9.00386719 18.02719727 9.00386719 18.02719727 9.0078125 19.52148438 C8.93462672 24.91893588 8.62396967 29.02922938 5.5 33.625 C3.74609375 35.3046875 3.74609375 35.3046875 1.9375 36.5 C1.33808594 36.90992188 0.73867187 37.31984375 0.12109375 37.7421875 C-1.5 38.625 -1.5 38.625 -3.5 38.625 C-3.17 40.605 -2.84 42.585 -2.5 44.625 C1.61574371 44.1501065 4.86383344 43.6039756 8.5 41.625 C8.67528316 45.64527658 8.78118359 49.6645628 8.875 53.6875 C8.92527344 54.82123047 8.97554687 55.95496094 9.02734375 57.12304688 C9.19311161 66.59944279 9.19311161 66.59944279 5.6015625 70.87109375 C2.39265249 74.02588814 0.17808526 74.80958228 -4.3125 74.9375 C-7.93732872 74.90083266 -9.33356735 74.72010437 -12.5625 72.875 C-14.45551924 70.67665508 -15.19461464 69.47526332 -15.5 66.625 C-12.53 65.635 -12.53 65.635 -9.5 64.625 C-9.83 62.975 -10.16 61.325 -10.5 59.625 C-11.551875 59.356875 -12.60375 59.08875 -13.6875 58.8125 C-21.39430607 56.41201942 -21.39430607 56.41201942 -23.609375 52.83203125 C-25.2162893 48.84998484 -25.18844183 44.83062979 -24.5 40.625 C-22.125 37.625 -22.125 37.625 -19.5 35.625 C-18.84 34.965 -18.18 34.305 -17.5 33.625 C-17.66507646 31.04959787 -17.66507646 31.04959787 -18.5 28.625 C-19.16 28.295 -19.82 27.965 -20.5 27.625 C-20.82644414 23.46283725 -20.90650982 21.26186538 -18.625 17.6875 C-16.5 15.625 -16.5 15.625 -14.5 15.625 C-14.17 16.285 -13.84 16.945 -13.5 17.625 C-11.85 17.625 -10.2 17.625 -8.5 17.625 C-8.11781233 15.96885343 -7.78604898 14.30042976 -7.5 12.625 C-7.83 12.295 -8.16 11.965 -8.5 11.625 C-9.04441566 7.6326185 -8.8175546 6.06765187 -6.4375 2.75 C-3.5 0.625 -3.5 0.625 0 0 Z " fill="#2F81FF" transform="translate(77.5,54.375)"/>
<path d="M0 0 C4.4297642 0.79102932 5.89210172 1.98974785 8.5 5.625 C8.98616786 9.51434291 8.26141803 12.81790986 7.5 16.625 C8.56645115 17.92133621 8.56645115 17.92133621 11.0625 17.6875 C12.2690625 17.6565625 12.2690625 17.6565625 13.5 17.625 C13.83 16.965 14.16 16.305 14.5 15.625 C17.66115776 16.99483503 18.4927092 17.6140638 20.5 20.625 C20.8125 24.1875 20.8125 24.1875 20.5 27.625 C19.51 28.285 18.52 28.945 17.5 29.625 C17.91514897 34.4684046 19.96208699 36.44087829 23.5 39.625 C25.13930993 41.26430993 24.71001367 43.12243674 24.75 45.375 C24.6953482 49.63176762 24.40243236 52.32223214 21.5 55.625 C17.7990379 58.40072158 13.9524304 59.49006676 9.5 60.625 C9.83 62.275 10.16 63.925 10.5 65.625 C12.15 65.955 13.8 66.285 15.5 66.625 C14.60368306 69.63988424 13.82087126 71.34302222 11.4375 73.4375 C7.34388416 75.09236598 3.84433833 75.56652042 -0.5 74.625 C-3.8737101 72.57443643 -6.72043124 70.18413752 -8.5 66.625 C-8.584915 64.7386088 -8.607193 62.84921485 -8.59765625 60.9609375 C-8.59443359 59.83945313 -8.59121094 58.71796875 -8.58789062 57.5625 C-8.57951172 56.386875 -8.57113281 55.21125 -8.5625 54 C-8.55798828 52.81664062 -8.55347656 51.63328125 -8.54882812 50.4140625 C-8.53701467 47.48432493 -8.52054258 44.55468728 -8.5 41.625 C-7.56929688 42.11613281 -6.63859375 42.60726562 -5.6796875 43.11328125 C-2.5497319 44.60135597 -0.88800918 44.92394199 2.5 44.625 C2.995 41.655 2.995 41.655 3.5 38.625 C2.778125 38.3775 2.05625 38.13 1.3125 37.875 C-1.88914869 36.45204503 -4.01586648 35.10913352 -6.5 32.625 C-8.61425179 26.92539114 -8.89733653 21.54237167 -8.9375 15.5 C-8.97037109 14.61957031 -9.00324219 13.73914063 -9.03710938 12.83203125 C-9.07467634 8.3035043 -8.98183111 6.26744148 -6.19140625 2.546875 C-3.5 0.625 -3.5 0.625 0 0 Z " fill="#2F81FF" transform="translate(102.5,54.375)"/>
</svg>
